<svg width="567" height="657" viewBox="0 0 567 657" fill="none" xmlns="http://www.w3.org/2000/svg">
<path d="M439.5 656.5H303.5L150.5 449.5V270.5L439.5 656.5Z" fill="#DE3A39" stroke="#DE3A39"/>
<path d="M490 470.5V646.5L35.5 51.5L21.7848 35.853C11.5096 24.1306 16.6424 5.71669 31.5 1H444.5L463.505 6.62133C517.029 22.4524 556.824 67.4433 566 122.5V320H444.5L373.5 216H402.5C429.796 216 452.98 196.017 457.006 169.019L458.5 159L456.351 143.074C452.714 116.115 429.703 96 402.5 96H206L490 470.5Z" fill="white"/>
<path d="M490 646.5L489.603 646.804L490.5 647.978V646.5H490ZM490 470.5H490.5V470.332L490.398 470.198L490 470.5ZM206 96V95.5H204.993L205.602 96.3021L206 96ZM373.5 216V215.5H372.553L373.087 216.282L373.5 216ZM444.5 320L444.087 320.282L444.236 320.5H444.5V320ZM566 320V320.5H566.5V320H566ZM566 122.5H566.5V122.459L566.493 122.418L566 122.5ZM444.5 1L444.642 0.520533L444.572 0.5H444.5V1ZM31.5 1V0.5H31.4225L31.3487 0.523438L31.5 1ZM35.5 51.5L35.8973 51.1965L35.8871 51.1831L35.876 51.1704L35.5 51.5ZM463.505 6.62133L463.647 6.14186L463.647 6.14186L463.505 6.62133ZM21.7848 35.853L22.1608 35.5235L22.1608 35.5235L21.7848 35.853ZM456.351 143.074L456.847 143.007L456.847 143.007L456.351 143.074ZM458.5 159L458.995 159.074L459.005 159.004L458.996 158.933L458.5 159ZM457.006 169.019L456.511 168.946L456.511 168.946L457.006 169.019ZM490.5 646.5V470.5H489.5V646.5H490.5ZM490.398 470.198L206.398 95.6979L205.602 96.3021L489.602 470.802L490.398 470.198ZM206 96.5H402.5V95.5H206V96.5ZM402.5 215.5H373.5V216.5H402.5V215.5ZM373.087 216.282L444.087 320.282L444.913 319.718L373.913 215.718L373.087 216.282ZM444.5 320.5H566V319.5H444.5V320.5ZM566.5 320V122.5H565.5V320H566.5ZM444.5 0.5H31.5V1.5H444.5V0.5ZM35.1027 51.8035L489.603 646.804L490.397 646.196L35.8973 51.1965L35.1027 51.8035ZM463.647 6.14186L444.642 0.520533L444.358 1.47947L463.364 7.1008L463.647 6.14186ZM21.4088 36.1826L35.124 51.8296L35.876 51.1704L22.1608 35.5235L21.4088 36.1826ZM455.856 143.14L458.004 159.067L458.996 158.933L456.847 143.007L455.856 143.14ZM458.005 158.926L456.511 168.946L457.5 169.093L458.995 159.074L458.005 158.926ZM402.5 96.5C429.452 96.5 452.252 116.43 455.856 143.14L456.847 143.007C453.176 115.8 429.953 95.5 402.5 95.5V96.5ZM31.3487 0.523438C16.1475 5.34922 10.8959 24.1891 21.4088 36.1826L22.1608 35.5235C12.1232 24.0722 17.1374 6.08415 31.6513 1.47656L31.3487 0.523438ZM402.5 216.5C430.044 216.5 453.438 196.336 457.5 169.093L456.511 168.946C452.522 195.699 429.549 215.5 402.5 215.5V216.5ZM566.493 122.418C557.286 67.1723 517.355 22.0272 463.647 6.14186L463.364 7.1008C516.704 22.8776 556.362 67.7142 565.507 122.582L566.493 122.418Z" fill="white"/>
</svg>
