solid ascii
  facet normal 6.070284e-001 -7.946801e-001 0.000000e+000
    outer loop
      vertex   -2.673300e+002 1.922941e+002 1.630836e+001
      vertex   -2.480856e+002 2.069942e+002 1.630836e+001
      vertex   -2.673300e+002 1.922941e+002 3.430836e+001
    endloop
  endfacet
  facet normal 3.621230e-001 -4.740667e-001 -5.551115e-017
    outer loop
      vertex   -2.673300e+002 1.922941e+002 3.430836e+001
      vertex   -2.480856e+002 2.069942e+002 1.630836e+001
      vertex   -2.480856e+002 2.069942e+002 3.430836e+001
    endloop
  endfacet
  facet normal 0.000000e+000 0.000000e+000 -1.000000e+000
    outer loop
      vertex   -2.564035e+002 1.779899e+002 3.430836e+001
      vertex   -2.673300e+002 1.922941e+002 3.430836e+001
      vertex   -2.371591e+002 1.926899e+002 3.430836e+001
    endloop
  endfacet
  facet normal -0.000000e+000 0.000000e+000 -8.025756e-001
    outer loop
      vertex   -2.371591e+002 1.926899e+002 3.430836e+001
      vertex   -2.673300e+002 1.922941e+002 3.430836e+001
      vertex   -2.480856e+002 2.069942e+002 3.430836e+001
    endloop
  endfacet
  facet normal -6.070287e-001 7.946799e-001 0.000000e+000
    outer loop
      vertex   -2.564035e+002 1.779899e+002 3.430836e+001
      vertex   -2.371591e+002 1.926899e+002 3.430836e+001
      vertex   -2.564035e+002 1.779899e+002 1.630836e+001
    endloop
  endfacet
  facet normal -3.621235e-001 4.740670e-001 -5.551115e-017
    outer loop
      vertex   -2.564035e+002 1.779899e+002 1.630836e+001
      vertex   -2.371591e+002 1.926899e+002 3.430836e+001
      vertex   -2.371591e+002 1.926899e+002 1.630836e+001
    endloop
  endfacet
  facet normal -0.000000e+000 0.000000e+000 1.000000e+000
    outer loop
      vertex   -2.673300e+002 1.922941e+002 1.630836e+001
      vertex   -2.564035e+002 1.779899e+002 1.630836e+001
      vertex   -2.480856e+002 2.069942e+002 1.630836e+001
    endloop
  endfacet
  facet normal 0.000000e+000 0.000000e+000 8.025751e-001
    outer loop
      vertex   -2.480856e+002 2.069942e+002 1.630836e+001
      vertex   -2.564035e+002 1.779899e+002 1.630836e+001
      vertex   -2.371591e+002 1.926899e+002 1.630836e+001
    endloop
  endfacet
  facet normal -5.619257e-001 -4.292236e-001 0.000000e+000
    outer loop
      vertex   -2.564035e+002 1.779899e+002 1.630836e+001
      vertex   -2.557965e+002 1.771952e+002 1.530836e+001
      vertex   -2.564035e+002 1.779899e+002 3.430836e+001
    endloop
  endfacet
  facet normal -5.906832e-001 -4.511899e-001 0.000000e+000
    outer loop
      vertex   -2.564035e+002 1.779899e+002 3.430836e+001
      vertex   -2.557965e+002 1.771952e+002 1.530836e+001
      vertex   -2.557965e+002 1.771952e+002 3.530836e+001
    endloop
  endfacet
  facet normal -5.906841e-001 -4.512039e-001 -1.057792e-005
    outer loop
      vertex   -2.564035e+002 1.779899e+002 3.430836e+001
      vertex   -2.557965e+002 1.771952e+002 3.530836e+001
      vertex   -2.679370e+002 1.930888e+002 3.530836e+001
    endloop
  endfacet
  facet normal -5.619266e-001 -4.292378e-001 1.070469e-005
    outer loop
      vertex   -2.564035e+002 1.779899e+002 1.630836e+001
      vertex   -2.673300e+002 1.922941e+002 1.630836e+001
      vertex   -2.557965e+002 1.771952e+002 1.530836e+001
    endloop
  endfacet
  facet normal -4.176744e-002 -3.190475e-002 -1.106473e-007
    outer loop
      vertex   -2.557965e+002 1.771952e+002 1.530836e+001
      vertex   -2.673300e+002 1.922941e+002 1.630836e+001
      vertex   -2.679370e+002 1.930888e+002 1.530836e+001
    endloop
  endfacet
  facet normal -5.316124e-001 -4.060792e-001 3.469447e-018
    outer loop
      vertex   -2.679370e+002 1.930888e+002 1.530836e+001
      vertex   -2.673300e+002 1.922941e+002 1.630836e+001
      vertex   -2.673300e+002 1.922941e+002 3.430836e+001
    endloop
  endfacet
  facet normal -4.176734e-002 -3.190453e-002 0.000000e+000
    outer loop
      vertex   -2.679370e+002 1.930888e+002 1.530836e+001
      vertex   -2.673300e+002 1.922941e+002 3.430836e+001
      vertex   -2.679370e+002 1.930888e+002 3.530836e+001
    endloop
  endfacet
  facet normal -5.316133e-001 -4.060825e-001 2.015445e-006
    outer loop
      vertex   -2.679370e+002 1.930888e+002 3.530836e+001
      vertex   -2.673300e+002 1.922941e+002 3.430836e+001
      vertex   -2.564035e+002 1.779899e+002 3.430836e+001
    endloop
  endfacet
  facet normal 4.176734e-002 3.190453e-002 0.000000e+000
    outer loop
      vertex   -2.371591e+002 1.926899e+002 3.430836e+001
      vertex   -2.365521e+002 1.918953e+002 1.530836e+001
      vertex   -2.371591e+002 1.926899e+002 1.630836e+001
    endloop
  endfacet
  facet normal 5.906819e-001 4.512017e-001 -1.220554e-006
    outer loop
      vertex   -2.371591e+002 1.926899e+002 1.630836e+001
      vertex   -2.365521e+002 1.918953e+002 1.530836e+001
      vertex   -2.486927e+002 2.077889e+002 1.530836e+001
    endloop
  endfacet
  facet normal 4.176744e-002 3.190469e-002 -5.768316e-007
    outer loop
      vertex   -2.371591e+002 1.926899e+002 1.630836e+001
      vertex   -2.486927e+002 2.077889e+002 1.530836e+001
      vertex   -2.480856e+002 2.069942e+002 1.630836e+001
    endloop
  endfacet
  facet normal 5.619205e-001 4.292412e-001 -0.000000e+000
    outer loop
      vertex   -2.480856e+002 2.069942e+002 1.630836e+001
      vertex   -2.486927e+002 2.077889e+002 1.530836e+001
      vertex   -2.480856e+002 2.069942e+002 3.430836e+001
    endloop
  endfacet
  facet normal 5.906777e-001 4.512084e-001 3.469447e-018
    outer loop
      vertex   -2.480856e+002 2.069942e+002 3.430836e+001
      vertex   -2.486927e+002 2.077889e+002 1.530836e+001
      vertex   -2.486927e+002 2.077889e+002 3.530836e+001
    endloop
  endfacet
  facet normal 5.906794e-001 4.511999e-001 7.792504e-006
    outer loop
      vertex   -2.480856e+002 2.069942e+002 3.430836e+001
      vertex   -2.486927e+002 2.077889e+002 3.530836e+001
      vertex   -2.365521e+002 1.918953e+002 3.530836e+001
    endloop
  endfacet
  facet normal 4.176734e-002 3.190453e-002 -0.000000e+000
    outer loop
      vertex   -2.365521e+002 1.918953e+002 1.530836e+001
      vertex   -2.371591e+002 1.926899e+002 3.430836e+001
      vertex   -2.365521e+002 1.918953e+002 3.530836e+001
    endloop
  endfacet
  facet normal 5.316141e-001 4.060815e-001 7.699009e-007
    outer loop
      vertex   -2.365521e+002 1.918953e+002 3.530836e+001
      vertex   -2.371591e+002 1.926899e+002 3.430836e+001
      vertex   -2.480856e+002 2.069942e+002 3.430836e+001
    endloop
  endfacet
  facet normal -6.070288e-001 7.946799e-001 0.000000e+000
    outer loop
      vertex   -2.679370e+002 1.930888e+002 3.530836e+001
      vertex   -2.486927e+002 2.077889e+002 3.530836e+001
      vertex   -2.679370e+002 1.930888e+002 1.530836e+001
    endloop
  endfacet
  facet normal -3.865488e-001 5.060428e-001 5.551115e-017
    outer loop
      vertex   -2.679370e+002 1.930888e+002 1.530836e+001
      vertex   -2.486927e+002 2.077889e+002 3.530836e+001
      vertex   -2.486927e+002 2.077889e+002 1.530836e+001
    endloop
  endfacet
  facet normal 6.070284e-001 -7.946802e-001 0.000000e+000
    outer loop
      vertex   -2.557965e+002 1.771952e+002 1.530836e+001
      vertex   -2.365521e+002 1.918953e+002 1.530836e+001
      vertex   -2.557965e+002 1.771952e+002 3.530836e+001
    endloop
  endfacet
  facet normal 3.865486e-001 -5.060431e-001 -5.551115e-017
    outer loop
      vertex   -2.557965e+002 1.771952e+002 3.530836e+001
      vertex   -2.365521e+002 1.918953e+002 1.530836e+001
      vertex   -2.365521e+002 1.918953e+002 3.530836e+001
    endloop
  endfacet
  facet normal 0.000000e+000 0.000000e+000 -1.000000e+000
    outer loop
      vertex   -2.557965e+002 1.771952e+002 1.530836e+001
      vertex   -2.679370e+002 1.930888e+002 1.530836e+001
      vertex   -2.365521e+002 1.918953e+002 1.530836e+001
    endloop
  endfacet
  facet normal 0.000000e+000 0.000000e+000 -7.710386e-001
    outer loop
      vertex   -2.365521e+002 1.918953e+002 1.530836e+001
      vertex   -2.679370e+002 1.930888e+002 1.530836e+001
      vertex   -2.486927e+002 2.077889e+002 1.530836e+001
    endloop
  endfacet
  facet normal 0.000000e+000 0.000000e+000 1.000000e+000
    outer loop
      vertex   -2.365521e+002 1.918953e+002 3.530836e+001
      vertex   -2.486927e+002 2.077889e+002 3.530836e+001
      vertex   -2.557965e+002 1.771952e+002 3.530836e+001
    endloop
  endfacet
  facet normal 0.000000e+000 -0.000000e+000 7.710390e-001
    outer loop
      vertex   -2.557965e+002 1.771952e+002 3.530836e+001
      vertex   -2.486927e+002 2.077889e+002 3.530836e+001
      vertex   -2.679370e+002 1.930888e+002 3.530836e+001
    endloop
  endfacet
endsolid
