solid ascii
  facet normal 6.070307e-001 -7.946783e-001 0.000000e+000
    outer loop
      vertex   -2.684297e+002 1.914541e+002 1.630836e+001
      vertex   -2.671447e+002 1.924356e+002 1.630836e+001
      vertex   -2.684297e+002 1.914541e+002 3.430836e+001
    endloop
  endfacet
  facet normal 6.045962e-001 -7.914912e-001 -6.938894e-018
    outer loop
      vertex   -2.684297e+002 1.914541e+002 3.430836e+001
      vertex   -2.671447e+002 1.924356e+002 1.630836e+001
      vertex   -2.671447e+002 1.924356e+002 3.430836e+001
    endloop
  endfacet
  facet normal 0.000000e+000 0.000000e+000 -9.999534e-001
    outer loop
      vertex   -2.576411e+002 1.770445e+002 3.430836e+001
      vertex   -2.684297e+002 1.914541e+002 3.430836e+001
      vertex   -2.563561e+002 1.780260e+002 3.430836e+001
    endloop
  endfacet
  facet normal 0.000000e+000 0.000000e+000 -8.954028e-002
    outer loop
      vertex   -2.563561e+002 1.780260e+002 3.430836e+001
      vertex   -2.684297e+002 1.914541e+002 3.430836e+001
      vertex   -2.671447e+002 1.924356e+002 3.430836e+001
    endloop
  endfacet
  facet normal -6.070307e-001 7.946783e-001 0.000000e+000
    outer loop
      vertex   -2.576411e+002 1.770445e+002 3.430836e+001
      vertex   -2.563561e+002 1.780260e+002 3.430836e+001
      vertex   -2.576411e+002 1.770445e+002 1.630836e+001
    endloop
  endfacet
  facet normal -6.045962e-001 7.914912e-001 -6.938894e-018
    outer loop
      vertex   -2.576411e+002 1.770445e+002 1.630836e+001
      vertex   -2.563561e+002 1.780260e+002 3.430836e+001
      vertex   -2.563561e+002 1.780260e+002 1.630836e+001
    endloop
  endfacet
  facet normal 0.000000e+000 -0.000000e+000 9.999534e-001
    outer loop
      vertex   -2.576411e+002 1.770445e+002 1.630836e+001
      vertex   -2.563561e+002 1.780260e+002 1.630836e+001
      vertex   -2.684297e+002 1.914541e+002 1.630836e+001
    endloop
  endfacet
  facet normal -0.000000e+000 0.000000e+000 9.968007e-001
    outer loop
      vertex   -2.684297e+002 1.914541e+002 1.630836e+001
      vertex   -2.563561e+002 1.780260e+002 1.630836e+001
      vertex   -2.671447e+002 1.924356e+002 1.630836e+001
    endloop
  endfacet
  facet normal 8.041764e-001 5.943907e-001 -0.000000e+000
    outer loop
      vertex   -3.015944e+002 1.412271e+002 8.743860e+000
      vertex   -3.015944e+002 1.412271e+002 4.360836e+001
      vertex   -2.746633e+002 1.047908e+002 8.743860e+000
    endloop
  endfacet
  facet normal 6.373310e-001 4.710703e-001 -0.000000e+000
    outer loop
      vertex   -2.746633e+002 1.047908e+002 8.743860e+000
      vertex   -3.015944e+002 1.412271e+002 4.360836e+001
      vertex   -2.746633e+002 1.047908e+002 4.360836e+001
    endloop
  endfacet
  facet normal 8.041760e-001 5.943913e-001 -0.000000e+000
    outer loop
      vertex   -2.746633e+002 1.047908e+002 8.743860e+000
      vertex   -2.746633e+002 1.047908e+002 4.360836e+001
      vertex   -2.477321e+002 6.835452e+001 8.743860e+000
    endloop
  endfacet
  facet normal 6.373308e-001 4.710709e-001 -0.000000e+000
    outer loop
      vertex   -2.477321e+002 6.835452e+001 8.743860e+000
      vertex   -2.746633e+002 1.047908e+002 4.360836e+001
      vertex   -2.477321e+002 6.835452e+001 4.360836e+001
    endloop
  endfacet
  facet normal 8.041762e-001 5.943910e-001 -0.000000e+000
    outer loop
      vertex   -2.477321e+002 6.835452e+001 8.743860e+000
      vertex   -2.477321e+002 6.835452e+001 4.360836e+001
      vertex   -2.208009e+002 3.191822e+001 8.743860e+000
    endloop
  endfacet
  facet normal 6.373309e-001 4.710707e-001 -0.000000e+000
    outer loop
      vertex   -2.208009e+002 3.191822e+001 8.743860e+000
      vertex   -2.477321e+002 6.835452e+001 4.360836e+001
      vertex   -2.208009e+002 3.191822e+001 4.360836e+001
    endloop
  endfacet
  facet normal 1.000000e+000 0.000000e+000 -0.000000e+000
    outer loop
      vertex   -3.015944e+002 2.357503e+002 8.743860e+000
      vertex   -3.015944e+002 2.357503e+002 4.360836e+001
      vertex   -3.015944e+002 1.884887e+002 8.743860e+000
    endloop
  endfacet
  facet normal 8.047290e-001 0.000000e+000 0.000000e+000
    outer loop
      vertex   -3.015944e+002 1.884887e+002 8.743860e+000
      vertex   -3.015944e+002 2.357503e+002 4.360836e+001
      vertex   -3.015944e+002 1.884887e+002 4.360836e+001
    endloop
  endfacet
  facet normal 1.000000e+000 0.000000e+000 -0.000000e+000
    outer loop
      vertex   -3.015944e+002 1.884887e+002 8.743860e+000
      vertex   -3.015944e+002 1.884887e+002 4.360836e+001
      vertex   -3.015944e+002 1.412271e+002 8.743860e+000
    endloop
  endfacet
  facet normal 8.047290e-001 0.000000e+000 0.000000e+000
    outer loop
      vertex   -3.015944e+002 1.412271e+002 8.743860e+000
      vertex   -3.015944e+002 1.884887e+002 4.360836e+001
      vertex   -3.015944e+002 1.412271e+002 4.360836e+001
    endloop
  endfacet
  facet normal 0.000000e+000 -0.000000e+000 9.701521e-001
    outer loop
      vertex   -2.746633e+002 1.047908e+002 8.743860e+000
      vertex   -2.507244e+002 1.338343e+002 8.743860e+000
      vertex   -3.015944e+002 1.412271e+002 8.743860e+000
    endloop
  endfacet
  facet normal -0.000000e+000 0.000000e+000 3.466462e-001
    outer loop
      vertex   -3.015944e+002 1.412271e+002 8.743860e+000
      vertex   -2.507244e+002 1.338343e+002 8.743860e+000
      vertex   -2.405504e+002 1.542175e+002 8.743860e+000
    endloop
  endfacet
  facet normal 0.000000e+000 0.000000e+000 7.477919e-001
    outer loop
      vertex   -3.015944e+002 1.412271e+002 8.743860e+000
      vertex   -2.405504e+002 1.542175e+002 8.743860e+000
      vertex   -2.710724e+002 1.949839e+002 8.743860e+000
    endloop
  endfacet
  facet normal 0.000000e+000 0.000000e+000 6.360353e-001
    outer loop
      vertex   -2.507244e+002 1.338343e+002 8.743860e+000
      vertex   -2.746633e+002 1.047908e+002 8.743860e+000
      vertex   -2.507244e+002 8.287624e+001 8.743860e+000
    endloop
  endfacet
  facet normal 0.000000e+000 0.000000e+000 5.861505e-001
    outer loop
      vertex   -2.507244e+002 8.287624e+001 8.743860e+000
      vertex   -2.746633e+002 1.047908e+002 8.743860e+000
      vertex   -2.477321e+002 6.835452e+001 8.743860e+000
    endloop
  endfacet
  facet normal -0.000000e+000 0.000000e+000 9.794225e-001
    outer loop
      vertex   -2.507244e+002 8.287624e+001 8.743860e+000
      vertex   -2.477321e+002 6.835452e+001 8.743860e+000
      vertex   -1.998544e+002 8.287624e+001 8.743860e+000
    endloop
  endfacet
  facet normal 0.000000e+000 0.000000e+000 7.747426e-001
    outer loop
      vertex   -1.998544e+002 8.287624e+001 8.743860e+000
      vertex   -2.477321e+002 6.835452e+001 8.743860e+000
      vertex   -2.208009e+002 3.191822e+001 8.743860e+000
    endloop
  endfacet
  facet normal 0.000000e+000 0.000000e+000 9.972380e-001
    outer loop
      vertex   -1.998544e+002 8.287624e+001 8.743860e+000
      vertex   -2.208009e+002 3.191822e+001 8.743860e+000
      vertex   -1.795064e+002 7.268463e+001 8.743860e+000
    endloop
  endfacet
  facet normal 0.000000e+000 0.000000e+000 6.134877e-001
    outer loop
      vertex   -1.795064e+002 7.268463e+001 8.743860e+000
      vertex   -2.208009e+002 3.191822e+001 8.743860e+000
      vertex   -1.848927e+002 3.191822e+001 8.743860e+000
    endloop
  endfacet
  facet normal 0.000000e+000 0.000000e+000 6.990264e-001
    outer loop
      vertex   -1.795064e+002 7.268463e+001 8.743860e+000
      vertex   -1.848927e+002 3.191822e+001 8.743860e+000
      vertex   -1.489844e+002 3.191822e+001 8.743860e+000
    endloop
  endfacet
  facet normal 0.000000e+000 0.000000e+000 4.473365e-001
    outer loop
      vertex   -1.795064e+002 7.268463e+001 8.743860e+000
      vertex   -2.100284e+002 1.134510e+002 8.743860e+000
      vertex   -1.998544e+002 8.287624e+001 8.743860e+000
    endloop
  endfacet
  facet normal 0.000000e+000 0.000000e+000 9.488469e-001
    outer loop
      vertex   -1.998544e+002 8.287624e+001 8.743860e+000
      vertex   -2.100284e+002 1.134510e+002 8.743860e+000
      vertex   -2.507244e+002 8.287624e+001 8.743860e+000
    endloop
  endfacet
  facet normal 0.000000e+000 0.000000e+000 7.995018e-001
    outer loop
      vertex   -2.507244e+002 8.287624e+001 8.743860e+000
      vertex   -2.100284e+002 1.134510e+002 8.743860e+000
      vertex   -2.507244e+002 1.338343e+002 8.743860e+000
    endloop
  endfacet
  facet normal -0.000000e+000 0.000000e+000 9.999990e-001
    outer loop
      vertex   -2.507244e+002 1.338343e+002 8.743860e+000
      vertex   -2.100284e+002 1.134510e+002 8.743860e+000
      vertex   -2.405504e+002 1.542175e+002 8.743860e+000
    endloop
  endfacet
  facet normal 0.000000e+000 0.000000e+000 5.993361e-001
    outer loop
      vertex   -3.015944e+002 2.357503e+002 8.743860e+000
      vertex   -3.015944e+002 1.884887e+002 8.743860e+000
      vertex   -2.710724e+002 1.949839e+002 8.743860e+000
    endloop
  endfacet
  facet normal 0.000000e+000 0.000000e+000 7.477919e-001
    outer loop
      vertex   -2.710724e+002 1.949839e+002 8.743860e+000
      vertex   -3.015944e+002 1.884887e+002 8.743860e+000
      vertex   -3.015944e+002 1.412271e+002 8.743860e+000
    endloop
  endfacet
  facet normal -7.737367e-001 -5.793000e-001 0.000000e+000
    outer loop
      vertex   -2.576411e+002 1.770445e+002 1.630836e+001
      vertex   -2.405504e+002 1.542175e+002 8.743860e+000
      vertex   -2.576411e+002 1.770445e+002 3.430836e+001
    endloop
  endfacet
  facet normal -6.928241e-001 -5.187204e-001 0.000000e+000
    outer loop
      vertex   -2.576411e+002 1.770445e+002 3.430836e+001
      vertex   -2.405504e+002 1.542175e+002 8.743860e+000
      vertex   -2.405504e+002 1.542175e+002 4.360836e+001
    endloop
  endfacet
  facet normal -5.209502e-001 -3.900376e-001 2.432536e-007
    outer loop
      vertex   -2.576411e+002 1.770445e+002 3.430836e+001
      vertex   -2.405504e+002 1.542175e+002 4.360836e+001
      vertex   -2.710724e+002 1.949839e+002 4.360836e+001
    endloop
  endfacet
  facet normal -2.052507e-001 -1.536721e-001 -1.178285e-007
    outer loop
      vertex   -2.405504e+002 1.542175e+002 8.743860e+000
      vertex   -2.576411e+002 1.770445e+002 1.630836e+001
      vertex   -2.710724e+002 1.949839e+002 8.743860e+000
    endloop
  endfacet
  facet normal -5.263267e-001 -3.940629e-001 -2.440294e-007
    outer loop
      vertex   -2.710724e+002 1.949839e+002 8.743860e+000
      vertex   -2.576411e+002 1.770445e+002 1.630836e+001
      vertex   -2.684297e+002 1.914541e+002 1.630836e+001
    endloop
  endfacet
  facet normal -2.797164e-001 -2.094245e-001 -6.938894e-018
    outer loop
      vertex   -2.710724e+002 1.949839e+002 8.743860e+000
      vertex   -2.684297e+002 1.914541e+002 1.630836e+001
      vertex   -2.684297e+002 1.914541e+002 3.430836e+001
    endloop
  endfacet
  facet normal -1.360645e-001 -1.018719e-001 0.000000e+000
    outer loop
      vertex   -2.710724e+002 1.949839e+002 8.743860e+000
      vertex   -2.684297e+002 1.914541e+002 3.430836e+001
      vertex   -2.710724e+002 1.949839e+002 4.360836e+001
    endloop
  endfacet
  facet normal -5.366204e-001 -4.017699e-001 2.023726e-007
    outer loop
      vertex   -2.710724e+002 1.949839e+002 4.360836e+001
      vertex   -2.684297e+002 1.914541e+002 3.430836e+001
      vertex   -2.576411e+002 1.770445e+002 3.430836e+001
    endloop
  endfacet
  facet normal -8.004973e-001 -5.993363e-001 0.000000e+000
    outer loop
      vertex   -1.489844e+002 3.191822e+001 8.743860e+000
      vertex   -1.489844e+002 3.191822e+001 4.360836e+001
      vertex   -1.795064e+002 7.268463e+001 8.743860e+000
    endloop
  endfacet
  facet normal -6.605344e-001 -4.945454e-001 0.000000e+000
    outer loop
      vertex   -1.795064e+002 7.268463e+001 8.743860e+000
      vertex   -1.489844e+002 3.191822e+001 4.360836e+001
      vertex   -1.795064e+002 7.268463e+001 4.360836e+001
    endloop
  endfacet
  facet normal -8.004974e-001 -5.993362e-001 0.000000e+000
    outer loop
      vertex   -1.795064e+002 7.268463e+001 8.743860e+000
      vertex   -1.795064e+002 7.268463e+001 4.360836e+001
      vertex   -2.100284e+002 1.134510e+002 8.743860e+000
    endloop
  endfacet
  facet normal -6.605344e-001 -4.945453e-001 0.000000e+000
    outer loop
      vertex   -2.100284e+002 1.134510e+002 8.743860e+000
      vertex   -1.795064e+002 7.268463e+001 4.360836e+001
      vertex   -2.100284e+002 1.134510e+002 4.360836e+001
    endloop
  endfacet
  facet normal -8.004974e-001 -5.993362e-001 0.000000e+000
    outer loop
      vertex   -2.100284e+002 1.134510e+002 8.743860e+000
      vertex   -2.100284e+002 1.134510e+002 4.360836e+001
      vertex   -2.405504e+002 1.542175e+002 8.743860e+000
    endloop
  endfacet
  facet normal -6.605344e-001 -4.945453e-001 0.000000e+000
    outer loop
      vertex   -2.405504e+002 1.542175e+002 8.743860e+000
      vertex   -2.100284e+002 1.134510e+002 4.360836e+001
      vertex   -2.405504e+002 1.542175e+002 4.360836e+001
    endloop
  endfacet
  facet normal -8.004975e-001 -5.993361e-001 -0.000000e+000
    outer loop
      vertex   -3.015944e+002 2.357503e+002 4.360836e+001
      vertex   -3.015944e+002 2.357503e+002 8.743860e+000
      vertex   -2.710724e+002 1.949839e+002 4.360836e+001
    endloop
  endfacet
  facet normal -6.605346e-001 -4.945452e-001 -0.000000e+000
    outer loop
      vertex   -2.710724e+002 1.949839e+002 4.360836e+001
      vertex   -3.015944e+002 2.357503e+002 8.743860e+000
      vertex   -2.710724e+002 1.949839e+002 8.743860e+000
    endloop
  endfacet
  facet normal 0.000000e+000 1.000000e+000 0.000000e+000
    outer loop
      vertex   -2.208009e+002 3.191822e+001 8.743860e+000
      vertex   -2.208009e+002 3.191822e+001 4.360836e+001
      vertex   -1.848927e+002 3.191822e+001 8.743860e+000
    endloop
  endfacet
  facet normal 0.000000e+000 7.174569e-001 -0.000000e+000
    outer loop
      vertex   -1.848927e+002 3.191822e+001 8.743860e+000
      vertex   -2.208009e+002 3.191822e+001 4.360836e+001
      vertex   -1.848927e+002 3.191822e+001 4.360836e+001
    endloop
  endfacet
  facet normal 0.000000e+000 1.000000e+000 0.000000e+000
    outer loop
      vertex   -1.848927e+002 3.191822e+001 8.743860e+000
      vertex   -1.848927e+002 3.191822e+001 4.360836e+001
      vertex   -1.489844e+002 3.191822e+001 8.743860e+000
    endloop
  endfacet
  facet normal 0.000000e+000 7.174571e-001 -0.000000e+000
    outer loop
      vertex   -1.489844e+002 3.191822e+001 8.743860e+000
      vertex   -1.848927e+002 3.191822e+001 4.360836e+001
      vertex   -1.489844e+002 3.191822e+001 4.360836e+001
    endloop
  endfacet
  facet normal 0.000000e+000 0.000000e+000 -9.420796e-001
    outer loop
      vertex   -2.482914e+002 6.677541e+001 7.008366e+000
      vertex   -1.978938e+002 8.206142e+001 7.008366e+000
      vertex   -2.199428e+002 2.842140e+001 7.008366e+000
    endloop
  endfacet
  facet normal 0.000000e+000 0.000000e+000 -3.911072e-001
    outer loop
      vertex   -2.199428e+002 2.842140e+001 7.008366e+000
      vertex   -1.978938e+002 8.206142e+001 7.008366e+000
      vertex   -1.764749e+002 7.133342e+001 7.008366e+000
    endloop
  endfacet
  facet normal 0.000000e+000 0.000000e+000 -7.025419e-001
    outer loop
      vertex   -2.199428e+002 2.842140e+001 7.008366e+000
      vertex   -1.764749e+002 7.133342e+001 7.008366e+000
      vertex   -1.821446e+002 2.842140e+001 7.008366e+000
    endloop
  endfacet
  facet normal 0.000000e+000 0.000000e+000 -9.913842e-001
    outer loop
      vertex   -1.821446e+002 2.842140e+001 7.008366e+000
      vertex   -1.764749e+002 7.133342e+001 7.008366e+000
      vertex   -1.443465e+002 2.842140e+001 7.008366e+000
    endloop
  endfacet
  facet normal -0.000000e+000 0.000000e+000 -2.902515e-001
    outer loop
      vertex   -1.978938e+002 8.206142e+001 7.008366e+000
      vertex   -2.482914e+002 6.677541e+001 7.008366e+000
      vertex   -2.514412e+002 8.206142e+001 7.008366e+000
    endloop
  endfacet
  facet normal -0.000000e+000 -0.000000e+000 -5.861506e-001
    outer loop
      vertex   -2.514412e+002 8.206142e+001 7.008366e+000
      vertex   -2.482914e+002 6.677541e+001 7.008366e+000
      vertex   -2.766400e+002 1.051294e+002 7.008366e+000
    endloop
  endfacet
  facet normal 0.000000e+000 0.000000e+000 -7.376043e-001
    outer loop
      vertex   -2.514412e+002 8.206142e+001 7.008366e+000
      vertex   -2.766400e+002 1.051294e+002 7.008366e+000
      vertex   -2.514412e+002 1.357014e+002 7.008366e+000
    endloop
  endfacet
  facet normal -0.000000e+000 0.000000e+000 -8.551112e-001
    outer loop
      vertex   -2.514412e+002 1.357014e+002 7.008366e+000
      vertex   -2.766400e+002 1.051294e+002 7.008366e+000
      vertex   -3.049886e+002 1.434834e+002 7.008366e+000
    endloop
  endfacet
  facet normal 0.000000e+000 0.000000e+000 -9.496629e-001
    outer loop
      vertex   -2.514412e+002 1.357014e+002 7.008366e+000
      vertex   -3.049886e+002 1.434834e+002 7.008366e+000
      vertex   -2.407317e+002 1.571574e+002 7.008366e+000
    endloop
  endfacet
  facet normal -0.000000e+000 0.000000e+000 -9.077124e-001
    outer loop
      vertex   -2.407317e+002 1.571574e+002 7.008366e+000
      vertex   -3.049886e+002 1.434834e+002 7.008366e+000
      vertex   -2.728602e+002 2.000695e+002 7.008366e+000
    endloop
  endfacet
  facet normal 0.000000e+000 0.000000e+000 -7.477918e-001
    outer loop
      vertex   -2.728602e+002 2.000695e+002 7.008366e+000
      vertex   -3.049886e+002 1.434834e+002 7.008366e+000
      vertex   -3.049886e+002 1.932324e+002 7.008366e+000
    endloop
  endfacet
  facet normal -0.000000e+000 0.000000e+000 -9.077126e-001
    outer loop
      vertex   -2.728602e+002 2.000695e+002 7.008366e+000
      vertex   -3.049886e+002 1.932324e+002 7.008366e+000
      vertex   -3.049886e+002 2.429815e+002 7.008366e+000
    endloop
  endfacet
  facet normal 0.000000e+000 -0.000000e+000 -8.937461e-001
    outer loop
      vertex   -2.407317e+002 1.571574e+002 7.008366e+000
      vertex   -2.086033e+002 1.142454e+002 7.008366e+000
      vertex   -2.514412e+002 1.357014e+002 7.008366e+000
    endloop
  endfacet
  facet normal 0.000000e+000 0.000000e+000 -8.941175e-001
    outer loop
      vertex   -2.514412e+002 1.357014e+002 7.008366e+000
      vertex   -2.086033e+002 1.142454e+002 7.008366e+000
      vertex   -2.514412e+002 8.206142e+001 7.008366e+000
    endloop
  endfacet
  facet normal 0.000000e+000 0.000000e+000 -6.006638e-001
    outer loop
      vertex   -2.514412e+002 8.206142e+001 7.008366e+000
      vertex   -2.086033e+002 1.142454e+002 7.008366e+000
      vertex   -1.978938e+002 8.206142e+001 7.008366e+000
    endloop
  endfacet
  facet normal 0.000000e+000 0.000000e+000 -7.069844e-001
    outer loop
      vertex   -1.978938e+002 8.206142e+001 7.008366e+000
      vertex   -2.086033e+002 1.142454e+002 7.008366e+000
      vertex   -1.764749e+002 7.133342e+001 7.008366e+000
    endloop
  endfacet
  facet normal 5.528396e-001 4.139138e-001 0.000000e+000
    outer loop
      vertex   -2.563561e+002 1.780260e+002 3.430836e+001
      vertex   -2.407317e+002 1.571574e+002 7.008366e+000
      vertex   -2.563561e+002 1.780260e+002 1.630836e+001
    endloop
  endfacet
  facet normal 4.960701e-001 3.714100e-001 1.114639e-007
    outer loop
      vertex   -2.563561e+002 1.780260e+002 1.630836e+001
      vertex   -2.407317e+002 1.571574e+002 7.008366e+000
      vertex   -2.728602e+002 2.000695e+002 7.008366e+000
    endloop
  endfacet
  facet normal 2.561354e-001 1.917696e-001 -3.399510e-007
    outer loop
      vertex   -2.563561e+002 1.780260e+002 1.630836e+001
      vertex   -2.728602e+002 2.000695e+002 7.008366e+000
      vertex   -2.671447e+002 1.924356e+002 1.630836e+001
    endloop
  endfacet
  facet normal 3.505263e-001 2.624411e-001 -5.551115e-017
    outer loop
      vertex   -2.671447e+002 1.924356e+002 1.630836e+001
      vertex   -2.728602e+002 2.000695e+002 7.008366e+000
      vertex   -2.728602e+002 2.000695e+002 1.315229e+001
    endloop
  endfacet
  facet normal 7.599594e-001 5.689860e-001 -0.000000e+000
    outer loop
      vertex   -2.671447e+002 1.924356e+002 1.630836e+001
      vertex   -2.728602e+002 2.000695e+002 1.315229e+001
      vertex   -2.671447e+002 1.924356e+002 3.430836e+001
    endloop
  endfacet
  facet normal 7.521395e-001 5.631312e-001 0.000000e+000
    outer loop
      vertex   -2.671447e+002 1.924356e+002 3.430836e+001
      vertex   -2.728602e+002 2.000695e+002 1.315229e+001
      vertex   -2.728602e+002 2.000695e+002 4.360836e+001
    endloop
  endfacet
  facet normal 5.588909e-001 4.184439e-001 7.417779e-007
    outer loop
      vertex   -2.671447e+002 1.924356e+002 3.430836e+001
      vertex   -2.728602e+002 2.000695e+002 4.360836e+001
      vertex   -2.563561e+002 1.780260e+002 3.430836e+001
    endloop
  endfacet
  facet normal 4.960701e-001 3.714100e-001 -1.114639e-007
    outer loop
      vertex   -2.563561e+002 1.780260e+002 3.430836e+001
      vertex   -2.728602e+002 2.000695e+002 4.360836e+001
      vertex   -2.407317e+002 1.571574e+002 4.360836e+001
    endloop
  endfacet
  facet normal 7.310294e-001 5.473253e-001 0.000000e+000
    outer loop
      vertex   -2.563561e+002 1.780260e+002 3.430836e+001
      vertex   -2.407317e+002 1.571574e+002 4.360836e+001
      vertex   -2.407317e+002 1.571574e+002 7.008366e+000
    endloop
  endfacet
  facet normal 6.611058e-001 4.949729e-001 -0.000000e+000
    outer loop
      vertex   -2.407317e+002 1.571574e+002 7.008366e+000
      vertex   -2.407317e+002 1.571574e+002 4.360836e+001
      vertex   -2.086033e+002 1.142454e+002 4.360836e+001
    endloop
  endfacet
  facet normal 4.513705e-001 3.379431e-001 0.000000e+000
    outer loop
      vertex   -2.407317e+002 1.571574e+002 7.008366e+000
      vertex   -2.086033e+002 1.142454e+002 4.360836e+001
      vertex   -2.086033e+002 1.142454e+002 7.008366e+000
    endloop
  endfacet
  facet normal 6.611058e-001 4.949731e-001 -0.000000e+000
    outer loop
      vertex   -2.086033e+002 1.142454e+002 7.008366e+000
      vertex   -2.086033e+002 1.142454e+002 4.360836e+001
      vertex   -1.764749e+002 7.133342e+001 4.360836e+001
    endloop
  endfacet
  facet normal 4.513704e-001 3.379432e-001 0.000000e+000
    outer loop
      vertex   -2.086033e+002 1.142454e+002 7.008366e+000
      vertex   -1.764749e+002 7.133342e+001 4.360836e+001
      vertex   -1.764749e+002 7.133342e+001 7.008366e+000
    endloop
  endfacet
  facet normal 6.611059e-001 4.949729e-001 -0.000000e+000
    outer loop
      vertex   -1.764749e+002 7.133342e+001 7.008366e+000
      vertex   -1.764749e+002 7.133342e+001 4.360836e+001
      vertex   -1.443465e+002 2.842140e+001 4.360836e+001
    endloop
  endfacet
  facet normal 4.513705e-001 3.379431e-001 -5.551115e-017
    outer loop
      vertex   -1.764749e+002 7.133342e+001 7.008366e+000
      vertex   -1.443465e+002 2.842140e+001 4.360836e+001
      vertex   -1.443465e+002 2.842140e+001 7.008366e+000
    endloop
  endfacet
  facet normal 8.004975e-001 5.993360e-001 -0.000000e+000
    outer loop
      vertex   -2.728602e+002 2.000695e+002 7.008366e+000
      vertex   -3.049886e+002 2.429815e+002 7.008366e+000
      vertex   -2.728602e+002 2.000695e+002 1.315229e+001
    endloop
  endfacet
  facet normal 4.721110e-001 3.534716e-001 0.000000e+000
    outer loop
      vertex   -2.728602e+002 2.000695e+002 1.315229e+001
      vertex   -3.049886e+002 2.429815e+002 7.008366e+000
      vertex   -3.049886e+002 2.429815e+002 4.360836e+001
    endloop
  endfacet
  facet normal 6.960105e-001 5.211061e-001 -0.000000e+000
    outer loop
      vertex   -2.728602e+002 2.000695e+002 1.315229e+001
      vertex   -3.049886e+002 2.429815e+002 4.360836e+001
      vertex   -2.728602e+002 2.000695e+002 4.360836e+001
    endloop
  endfacet
  facet normal -0.000000e+000 -1.000000e+000 -0.000000e+000
    outer loop
      vertex   -1.443465e+002 2.842140e+001 4.360836e+001
      vertex   -1.821446e+002 2.842140e+001 4.360836e+001
      vertex   -1.443465e+002 2.842140e+001 7.008366e+000
    endloop
  endfacet
  facet normal 0.000000e+000 -6.956290e-001 0.000000e+000
    outer loop
      vertex   -1.443465e+002 2.842140e+001 7.008366e+000
      vertex   -1.821446e+002 2.842140e+001 4.360836e+001
      vertex   -1.821446e+002 2.842140e+001 7.008366e+000
    endloop
  endfacet
  facet normal 0.000000e+000 -7.184014e-001 0.000000e+000
    outer loop
      vertex   -1.821446e+002 2.842140e+001 7.008366e+000
      vertex   -1.821446e+002 2.842140e+001 4.360836e+001
      vertex   -2.199428e+002 2.842140e+001 4.360836e+001
    endloop
  endfacet
  facet normal 0.000000e+000 -6.956288e-001 0.000000e+000
    outer loop
      vertex   -1.821446e+002 2.842140e+001 7.008366e+000
      vertex   -2.199428e+002 2.842140e+001 4.360836e+001
      vertex   -2.199428e+002 2.842140e+001 7.008366e+000
    endloop
  endfacet
  facet normal -8.041762e-001 -5.943909e-001 -0.000000e+000
    outer loop
      vertex   -2.199428e+002 2.842140e+001 4.360836e+001
      vertex   -2.482914e+002 6.677541e+001 4.360836e+001
      vertex   -2.199428e+002 2.842140e+001 7.008366e+000
    endloop
  endfacet
  facet normal -4.895807e-001 -3.618639e-001 0.000000e+000
    outer loop
      vertex   -2.199428e+002 2.842140e+001 7.008366e+000
      vertex   -2.482914e+002 6.677541e+001 4.360836e+001
      vertex   -2.482914e+002 6.677541e+001 7.008366e+000
    endloop
  endfacet
  facet normal -6.379734e-001 -4.715457e-001 0.000000e+000
    outer loop
      vertex   -2.482914e+002 6.677541e+001 7.008366e+000
      vertex   -2.482914e+002 6.677541e+001 4.360836e+001
      vertex   -2.766400e+002 1.051294e+002 4.360836e+001
    endloop
  endfacet
  facet normal -4.895805e-001 -3.618639e-001 -5.551115e-017
    outer loop
      vertex   -2.482914e+002 6.677541e+001 7.008366e+000
      vertex   -2.766400e+002 1.051294e+002 4.360836e+001
      vertex   -2.766400e+002 1.051294e+002 7.008366e+000
    endloop
  endfacet
  facet normal -6.379735e-001 -4.715455e-001 0.000000e+000
    outer loop
      vertex   -2.766400e+002 1.051294e+002 7.008366e+000
      vertex   -2.766400e+002 1.051294e+002 4.360836e+001
      vertex   -3.049886e+002 1.434834e+002 4.360836e+001
    endloop
  endfacet
  facet normal -4.895807e-001 -3.618639e-001 0.000000e+000
    outer loop
      vertex   -2.766400e+002 1.051294e+002 7.008366e+000
      vertex   -3.049886e+002 1.434834e+002 4.360836e+001
      vertex   -3.049886e+002 1.434834e+002 7.008366e+000
    endloop
  endfacet
  facet normal -1.000000e+000 0.000000e+000 0.000000e+000
    outer loop
      vertex   -3.049886e+002 1.434834e+002 4.360836e+001
      vertex   -3.049886e+002 1.932324e+002 4.360836e+001
      vertex   -3.049886e+002 1.434834e+002 7.008366e+000
    endloop
  endfacet
  facet normal -5.925989e-001 0.000000e+000 0.000000e+000
    outer loop
      vertex   -3.049886e+002 1.434834e+002 7.008366e+000
      vertex   -3.049886e+002 1.932324e+002 4.360836e+001
      vertex   -3.049886e+002 1.932324e+002 7.008366e+000
    endloop
  endfacet
  facet normal -8.054978e-001 0.000000e+000 0.000000e+000
    outer loop
      vertex   -3.049886e+002 1.932324e+002 7.008366e+000
      vertex   -3.049886e+002 1.932324e+002 4.360836e+001
      vertex   -3.049886e+002 2.429815e+002 4.360836e+001
    endloop
  endfacet
  facet normal -5.925987e-001 0.000000e+000 0.000000e+000
    outer loop
      vertex   -3.049886e+002 1.932324e+002 7.008366e+000
      vertex   -3.049886e+002 2.429815e+002 4.360836e+001
      vertex   -3.049886e+002 2.429815e+002 7.008366e+000
    endloop
  endfacet
  facet normal 0.000000e+000 0.000000e+000 2.999420e-001
    outer loop
      vertex   -2.710724e+002 1.949839e+002 4.360836e+001
      vertex   -2.728602e+002 2.000695e+002 4.360836e+001
      vertex   -3.015944e+002 2.357503e+002 4.360836e+001
    endloop
  endfacet
  facet normal -0.000000e+000 -0.000000e+000 2.368483e-001
    outer loop
      vertex   -3.015944e+002 2.357503e+002 4.360836e+001
      vertex   -2.728602e+002 2.000695e+002 4.360836e+001
      vertex   -3.049886e+002 2.429815e+002 4.360836e+001
    endloop
  endfacet
  facet normal 0.000000e+000 0.000000e+000 4.955884e-001
    outer loop
      vertex   -3.015944e+002 2.357503e+002 4.360836e+001
      vertex   -3.049886e+002 2.429815e+002 4.360836e+001
      vertex   -3.049886e+002 1.932324e+002 4.360836e+001
    endloop
  endfacet
  facet normal 0.000000e+000 0.000000e+000 2.999421e-001
    outer loop
      vertex   -2.728602e+002 2.000695e+002 4.360836e+001
      vertex   -2.710724e+002 1.949839e+002 4.360836e+001
      vertex   -2.407317e+002 1.571574e+002 4.360836e+001
    endloop
  endfacet
  facet normal 0.000000e+000 0.000000e+000 5.764938e-001
    outer loop
      vertex   -2.407317e+002 1.571574e+002 4.360836e+001
      vertex   -2.710724e+002 1.949839e+002 4.360836e+001
      vertex   -2.405504e+002 1.542175e+002 4.360836e+001
    endloop
  endfacet
  facet normal 0.000000e+000 0.000000e+000 5.489277e-001
    outer loop
      vertex   -2.407317e+002 1.571574e+002 4.360836e+001
      vertex   -2.405504e+002 1.542175e+002 4.360836e+001
      vertex   -2.086033e+002 1.142454e+002 4.360836e+001
    endloop
  endfacet
  facet normal 0.000000e+000 0.000000e+000 9.862946e-001
    outer loop
      vertex   -2.086033e+002 1.142454e+002 4.360836e+001
      vertex   -2.405504e+002 1.542175e+002 4.360836e+001
      vertex   -2.100284e+002 1.134510e+002 4.360836e+001
    endloop
  endfacet
  facet normal 0.000000e+000 0.000000e+000 9.947748e-001
    outer loop
      vertex   -2.086033e+002 1.142454e+002 4.360836e+001
      vertex   -2.100284e+002 1.134510e+002 4.360836e+001
      vertex   -1.795064e+002 7.268463e+001 4.360836e+001
    endloop
  endfacet
  facet normal 0.000000e+000 0.000000e+000 3.187039e-002
    outer loop
      vertex   -2.086033e+002 1.142454e+002 4.360836e+001
      vertex   -1.795064e+002 7.268463e+001 4.360836e+001
      vertex   -1.764749e+002 7.133342e+001 4.360836e+001
    endloop
  endfacet
  facet normal 0.000000e+000 0.000000e+000 5.162707e-001
    outer loop
      vertex   -1.764749e+002 7.133342e+001 4.360836e+001
      vertex   -1.795064e+002 7.268463e+001 4.360836e+001
      vertex   -1.489844e+002 3.191822e+001 4.360836e+001
    endloop
  endfacet
  facet normal 0.000000e+000 0.000000e+000 3.364668e-002
    outer loop
      vertex   -1.764749e+002 7.133342e+001 4.360836e+001
      vertex   -1.489844e+002 3.191822e+001 4.360836e+001
      vertex   -1.443465e+002 2.842140e+001 4.360836e+001
    endloop
  endfacet
  facet normal 0.000000e+000 0.000000e+000 6.020213e-001
    outer loop
      vertex   -1.443465e+002 2.842140e+001 4.360836e+001
      vertex   -1.489844e+002 3.191822e+001 4.360836e+001
      vertex   -1.821446e+002 2.842140e+001 4.360836e+001
    endloop
  endfacet
  facet normal 0.000000e+000 -0.000000e+000 8.467223e-001
    outer loop
      vertex   -1.821446e+002 2.842140e+001 4.360836e+001
      vertex   -1.489844e+002 3.191822e+001 4.360836e+001
      vertex   -1.848927e+002 3.191822e+001 4.360836e+001
    endloop
  endfacet
  facet normal 0.000000e+000 0.000000e+000 7.862585e-001
    outer loop
      vertex   -1.821446e+002 2.842140e+001 4.360836e+001
      vertex   -1.848927e+002 3.191822e+001 4.360836e+001
      vertex   -2.199428e+002 2.842140e+001 4.360836e+001
    endloop
  endfacet
  facet normal 0.000000e+000 -0.000000e+000 9.900466e-001
    outer loop
      vertex   -2.199428e+002 2.842140e+001 4.360836e+001
      vertex   -1.848927e+002 3.191822e+001 4.360836e+001
      vertex   -2.208009e+002 3.191822e+001 4.360836e+001
    endloop
  endfacet
  facet normal 0.000000e+000 0.000000e+000 3.856038e-001
    outer loop
      vertex   -2.199428e+002 2.842140e+001 4.360836e+001
      vertex   -2.208009e+002 3.191822e+001 4.360836e+001
      vertex   -2.482914e+002 6.677541e+001 4.360836e+001
    endloop
  endfacet
  facet normal -0.000000e+000 0.000000e+000 8.458647e-001
    outer loop
      vertex   -2.482914e+002 6.677541e+001 4.360836e+001
      vertex   -2.208009e+002 3.191822e+001 4.360836e+001
      vertex   -2.477321e+002 6.835452e+001 4.360836e+001
    endloop
  endfacet
  facet normal 0.000000e+000 -0.000000e+000 8.116038e-001
    outer loop
      vertex   -2.482914e+002 6.677541e+001 4.360836e+001
      vertex   -2.477321e+002 6.835452e+001 4.360836e+001
      vertex   -2.746633e+002 1.047908e+002 4.360836e+001
    endloop
  endfacet
  facet normal 0.000000e+000 0.000000e+000 3.000779e-002
    outer loop
      vertex   -2.482914e+002 6.677541e+001 4.360836e+001
      vertex   -2.746633e+002 1.047908e+002 4.360836e+001
      vertex   -2.766400e+002 1.051294e+002 4.360836e+001
    endloop
  endfacet
  facet normal -0.000000e+000 -0.000000e+000 7.147672e-001
    outer loop
      vertex   -2.766400e+002 1.051294e+002 4.360836e+001
      vertex   -2.746633e+002 1.047908e+002 4.360836e+001
      vertex   -3.015944e+002 1.412271e+002 4.360836e+001
    endloop
  endfacet
  facet normal 0.000000e+000 0.000000e+000 3.163804e-002
    outer loop
      vertex   -2.766400e+002 1.051294e+002 4.360836e+001
      vertex   -3.015944e+002 1.412271e+002 4.360836e+001
      vertex   -3.049886e+002 1.434834e+002 4.360836e+001
    endloop
  endfacet
  facet normal -0.000000e+000 0.000000e+000 8.720587e-001
    outer loop
      vertex   -3.049886e+002 1.434834e+002 4.360836e+001
      vertex   -3.015944e+002 1.412271e+002 4.360836e+001
      vertex   -3.015944e+002 1.884887e+002 4.360836e+001
    endloop
  endfacet
  facet normal 0.000000e+000 0.000000e+000 7.520345e-002
    outer loop
      vertex   -3.049886e+002 1.434834e+002 4.360836e+001
      vertex   -3.015944e+002 1.884887e+002 4.360836e+001
      vertex   -3.049886e+002 1.932324e+002 4.360836e+001
    endloop
  endfacet
  facet normal -0.000000e+000 0.000000e+000 6.447660e-001
    outer loop
      vertex   -3.049886e+002 1.932324e+002 4.360836e+001
      vertex   -3.015944e+002 1.884887e+002 4.360836e+001
      vertex   -3.015944e+002 2.357503e+002 4.360836e+001
    endloop
  endfacet
endsolid
